<svg xmlns="http://www.w3.org/2000/svg"><symbol id="i-search" viewBox="0 0 24 24"><path d="M8 3h7l4 4v7l-4 4H8l-4-4V7Z"/><path d="m17 16 5 5M9 7H7v3"/><path class="icon-accent" d="M11 8h3v3h-3Z"/></symbol><symbol id="i-folder" viewBox="0 0 24 24"><path d="M3 7V4h6l3 3h8v13H3Z"/><path d="M3 10h17M7 16h3"/><path class="icon-accent" d="M14 15h3v3h-3Z"/></symbol><symbol id="i-cases" viewBox="0 0 24 24"><path d="M7 3h11l3 3v13H7Z"/><path d="M3 7v15h14M11 8h6M11 12h6M11 16h3"/><path class="icon-accent" d="M17 3v4h4Z"/></symbol><symbol id="i-user" viewBox="0 0 24 24"><path d="M9 3h6l2 3v4l-3 3h-4l-3-3V6ZM4 21v-3l4-3h8l4 3v3"/><path class="icon-accent" d="M10 18h4v3h-4Z"/></symbol><symbol id="i-plus" viewBox="0 0 24 24"><path d="M12 4v16M4 12h16"/><path class="icon-accent" d="M3 3h3v3H3Zm15 15h3v3h-3Z"/></symbol><symbol id="i-chevron" viewBox="0 0 24 24"><path d="m8 5 7 7-7 7"/><path class="icon-accent" d="M18 10h3v4h-3Z"/></symbol><symbol id="i-arrow" viewBox="0 0 24 24"><path d="M3 12h17M14 5l7 7-7 7"/><path class="icon-accent" d="M3 5h3v3H3Z"/></symbol><symbol id="i-back" viewBox="0 0 24 24"><path d="M21 12H4M10 5l-7 7 7 7"/><path class="icon-accent" d="M18 16h3v3h-3Z"/></symbol><symbol id="i-check" viewBox="0 0 24 24"><path d="m5 12 5 5L21 6"/><path class="icon-accent" d="M3 3h4v4H3Z"/></symbol><symbol id="i-verified" viewBox="0 0 24 24"><path d="M8 2h8l6 6v8l-6 6H8l-6-6V8Z"/><path d="m7 12 4 4 7-8"/><path class="icon-accent" d="M10 2h4v3h-4Z"/></symbol><symbol id="i-minus" viewBox="0 0 24 24"><path d="M4 12h16"/><path class="icon-accent" d="M3 3h3v3H3Zm15 15h3v3h-3Z"/></symbol><symbol id="i-clock" viewBox="0 0 24 24"><path d="M8 3h8l5 5v8l-5 5H8l-5-5V8Z"/><path d="M12 7v6h5"/><path class="icon-accent" d="M6 7h3v3H6Z"/></symbol><symbol id="i-lock" viewBox="0 0 24 24"><path d="M7 10V5l3-3h4l3 3v5M3 10h18v9l-3 3H6l-3-3Z"/><path d="M12 14v3"/><path class="icon-accent" d="M17 15h3v3h-3Z"/></symbol><symbol id="i-bell" viewBox="0 0 24 24"><path d="M4 17h16l-3-4V7l-3-3h-4L7 7v6ZM10 21h4M12 2v2"/><path class="icon-accent" d="M19 3h3v3h-3Z"/></symbol><symbol id="i-moon" viewBox="0 0 24 24"><path d="M14 3 8 6l-4 6 1 5 4 4 7-1 5-5-6 1-5-5 1-5Z"/><path class="icon-accent" d="M18 3h3v3h-3Z"/></symbol><symbol id="i-sun" viewBox="0 0 24 24"><path d="M10 7h4l3 3v4l-3 3h-4l-3-3v-4ZM12 1v3M12 20v3M1 12h3M20 12h3M4 4l2 2M18 18l2 2M20 4l-2 2M6 18l-2 2"/></symbol><symbol id="i-close" viewBox="0 0 24 24"><path d="m5 5 14 14M5 19 19 5"/><path class="icon-accent" d="M3 10h3v4H3Z"/></symbol><symbol id="i-file" viewBox="0 0 24 24"><path d="M4 2h11l5 5v15H4ZM15 2v6h5M8 12h8M8 16h5"/><path class="icon-accent" d="M15 17h3v3h-3Z"/></symbol><symbol id="i-image" viewBox="0 0 24 24"><path d="M4 3h16l2 2v15l-2 2H4l-2-2V5Z"/><path d="m3 18 6-6 5 5 4-4 4 4"/><path class="icon-accent" d="M7 6h4v4H7Z"/></symbol><symbol id="i-upload" viewBox="0 0 24 24"><path d="M12 17V3M6 9l6-6 6 6M3 16v6h18v-6"/><path class="icon-accent" d="M17 17h3v3h-3Z"/></symbol><symbol id="i-people" viewBox="0 0 24 24"><path d="M5 3h5l2 3v3l-3 3H6L3 9V6ZM2 21v-3l4-3h4l4 3v3M16 4h3l2 3v2l-3 3M17 15h2l3 3v3"/><path class="icon-accent" d="M6 18h4v3H6Z"/></symbol><symbol id="i-edit" viewBox="0 0 24 24"><path d="m16 2 6 6L9 21H3v-6ZM13 5l6 6M5 16l3 3"/><path class="icon-accent" d="M17 16h4v4h-4Z"/></symbol><symbol id="i-help" viewBox="0 0 24 24"><path d="M7 2h10l5 5v10l-5 5H7l-5-5V7ZM8 9V7h7v4l-3 2v2"/><path class="icon-solid" d="M11 17h3v3h-3Z"/></symbol><symbol id="i-spark" viewBox="0 0 24 24"><path class="icon-solid" d="m14 2-10 12h7l-1 8L21 9h-8Z"/></symbol><symbol id="i-flower" viewBox="0 0 24 24"><path class="icon-solid" d="M3 3h5v7l8-7h6L11 12l11 9h-7l-7-6v6H3Z"/></symbol><symbol id="i-logo" viewBox="0 0 24 24"><path class="icon-solid" d="M3 3h5v7l8-7h6L11 12l11 9h-7l-7-6v6H3Z"/></symbol><symbol id="i-search-active" viewBox="0 0 24 24"><path d="M8 3h7l4 4v7l-4 4H8l-4-4V7Zm9 13 5 5"/><path class="icon-solid" d="M7 7h9v7H7Z"/><path d="M10 9v3m-1-1h3" style="stroke:var(--primary)"/></symbol><symbol id="i-folder-active" viewBox="0 0 24 24"><path class="icon-solid" d="M3 4h7l3 4h8v13H3Z"/><path d="M3 11h18M7 16h4M16 16h2" style="stroke:var(--primary)"/></symbol><symbol id="i-cases-active" viewBox="0 0 24 24"><path d="M3 7v15h14"/><path class="icon-solid" d="M7 3h11l3 3v13H7Z"/><path d="M11 8h6M11 12h6M11 16h3" style="stroke:var(--primary)"/></symbol><symbol id="i-user-active" viewBox="0 0 24 24"><path class="icon-solid" d="M9 3h6l2 3v4l-3 3h-4l-3-3V6ZM4 21v-3l4-3h8l4 3v3Z"/><path d="M10 18h4" style="stroke:var(--primary)"/></symbol><symbol id="i-expand" viewBox="0 0 24 24"><path d="M3 9V3h6M15 3h6v6M21 15v6h-6M9 21H3v-6M4 4l5 5m6 6 5 5M20 4l-5 5M9 15l-5 5"/></symbol><symbol id="i-collapse" viewBox="0 0 24 24"><path d="M9 3v6H3M21 9h-6V3M15 21v-6h6M3 15h6v6M4 4l5 5M20 4l-5 5m0 6 5 5M9 15l-5 5"/></symbol></svg>